<svg
  width="24"
  height="24"
  viewBox="0 0 24 24"
  fill="none"
  xmlns="http://www.w3.org/2000/svg"
>
  <path
    d="M20.84 4.61C20.3297 4.10952 19.7222 3.71558 19.05 3.45C18.3779 3.18443 17.6554 3.05266 16.92 3.062C16.1846 3.05266 15.4621 3.18443 14.79 3.45C14.1179 3.71558 13.5103 4.10952 13 4.61L12 5.61L11 4.61C9.95942 3.56932 8.52217 2.99408 7.04 3C5.55783 2.99408 4.12058 3.56932 3.08 4.61C2.03942 5.65068 1.46418 7.08792 1.47 8.57C1.46418 10.0522 2.03942 11.4894 3.08 12.53L4.08 13.53L12 21.44L19.92 13.53L20.92 12.53C21.4205 12.0197 21.8144 11.4122 22.08 10.74C22.3456 10.0679 22.4773 9.34538 22.468 8.61C22.4773 7.87462 22.3456 7.15212 22.08 6.48C21.8144 5.80788 21.4205 5.20032 20.92 4.69L20.84 4.61Z"
    stroke="white"
    stroke-width="2"
    stroke-linecap="round"
    stroke-linejoin="round"
  />
</svg>
