<svg width="14" height="14" viewBox="0 0 14 14" fill="none" xmlns="http://www.w3.org/2000/svg">
<path fill-rule="evenodd" clip-rule="evenodd" d="M7.46399 8.12568L7.46529 1.39973C7.46533 1.1542 7.25709 0.955123 7.00017 0.955078C6.74325 0.955033 6.53493 1.15403 6.53488 1.39956L6.53359 8.1256L5.17065 6.82311C4.98897 6.6495 4.69442 6.6495 4.51275 6.82311C4.33108 6.99672 4.33108 7.27821 4.51275 7.45182L6.66989 9.51327C6.85156 9.68688 7.14611 9.68688 7.32778 9.51327L9.48492 7.45182C9.66659 7.27821 9.66659 6.99672 9.48492 6.82311C9.30324 6.6495 9.00869 6.6495 8.82702 6.82311L7.46399 8.12568ZM1.15568 7.46106C1.40697 7.46106 1.61068 7.66477 1.61068 7.91606V9.39725C1.61068 10.0701 1.61165 10.5289 1.65788 10.8728C1.70236 11.2036 1.78107 11.3591 1.88747 11.4655C1.99386 11.5719 2.14935 11.6506 2.48013 11.6951C2.82401 11.7413 3.28286 11.7423 3.95569 11.7423H10.0445C10.7173 11.7423 11.1762 11.7413 11.52 11.6951C11.8508 11.6506 12.0063 11.5719 12.1127 11.4655C12.2191 11.3591 12.2978 11.2036 12.3423 10.8728C12.3885 10.5289 12.3895 10.0701 12.3895 9.39725V7.91606C12.3895 7.66477 12.5932 7.46106 12.8445 7.46106C13.0958 7.46106 13.2995 7.66477 13.2995 7.91606V9.39725V9.42949C13.2995 10.062 13.2995 10.5824 13.2442 10.9941C13.1861 11.4258 13.0598 11.8053 12.7562 12.1089C12.4525 12.4126 12.073 12.5389 11.6413 12.5969C11.2297 12.6523 10.7093 12.6523 10.0768 12.6523H10.0767L10.0445 12.6523H3.95569L3.92346 12.6523H3.92342C3.2909 12.6523 2.7705 12.6523 2.35888 12.5969C1.92718 12.5389 1.54766 12.4126 1.244 12.1089C0.940346 11.8053 0.814038 11.4258 0.755998 10.9941C0.700655 10.5824 0.700668 10.062 0.700684 9.42948V9.39725V7.91606C0.700684 7.66477 0.904395 7.46106 1.15568 7.46106Z" fill="#333236" fill-opacity="0.8"/>
</svg>
